<?xml version="1.0" encoding="UTF-8" standalone="no"?>
<!-- Created with Inkscape (http://www.inkscape.org/) -->

<svg
   width="16"
   height="16"
   viewBox="0 0 16 16"
   version="1.1"
   id="svg1"
   xml:space="preserve"
   xmlns="http://www.w3.org/2000/svg"
   xmlns:svg="http://www.w3.org/2000/svg"><defs
     id="defs1" /><g
     id="layer1"><rect
       style="opacity:1;fill:#0f8b83;fill-opacity:1;stroke-width:1.00157;stroke-dasharray:none"
       id="rect2"
       width="16"
       height="16"
       x="0"
       y="0"
       rx="3"
       ry="3" /><g
       id="g2"
       style="fill:#fbfaf9;fill-opacity:1"><path
         id="path1"
         style="fill:#fbfaf9;fill-opacity:1;stroke-width:0.760642"
         d="M 6,3.5 A 1.5,1.5 0 0 1 4.5,5 1.5,1.5 0 0 1 3,3.5 1.5,1.5 0 0 1 4.5,2 1.5,1.5 0 0 1 6,3.5 Z" /><path
         id="circle2"
         style="fill:#fbfaf9;fill-opacity:1;stroke-width:0.760642"
         d="M 13,3.5 A 1.5,1.5 0 0 1 11.5,5 1.5,1.5 0 0 1 10,3.5 1.5,1.5 0 0 1 11.5,2 1.5,1.5 0 0 1 13,3.5 Z" /><path
         style="fill:#fbfaf9;fill-opacity:1;stroke-width:1.00157;stroke-dasharray:none"
         d="M 3,7 C 3,5 6,5 6,7 v 3 c 0,0 0,2 2,2 2,0 2,-2 2,-2 V 7 c 0,-2 3,-2 3,0 v 3 c 0,3 -2,5 -5,5 -3,0 -5,-2 -5,-5 z"
         id="path2" /></g></g></svg>
