<?xml version="1.0" encoding="UTF-8" standalone="no"?>
<!DOCTYPE svg PUBLIC "-//W3C//DTD SVG 1.1//EN" "http://www.w3.org/Graphics/SVG/1.1/DTD/svg11.dtd">
<svg width="100%" height="100%" viewBox="0 0 136 30" version="1.1" xmlns="http://www.w3.org/2000/svg" xmlns:xlink="http://www.w3.org/1999/xlink" xml:space="preserve" xmlns:serif="http://www.serif.com/" style="fill-rule:evenodd;clip-rule:evenodd;stroke-linejoin:round;stroke-miterlimit:2;">
    <g id="logo_Image" transform="matrix(1.1373,0,0,1.1373,-9.26573,-37.8948)">
        <g id="Layer_2">
            <g id="logo_Image1" serif:id="logo_Image">
                <path d="M12.26,58.45C11.437,58.473 10.633,58.196 10,57.67C9.352,57.13 8.984,56.323 9,55.48L9,37.94C9.017,37.127 9.381,36.358 10,35.83C10.653,35.232 11.516,34.916 12.4,34.95L21.49,34.95C22.288,34.91 23.067,35.204 23.64,35.76C24.143,36.264 24.424,36.948 24.42,37.66C24.424,38.374 24.139,39.06 23.63,39.56C23.056,40.107 22.282,40.396 21.49,40.36L15.49,40.36L15.49,42.8L20.49,42.8C21.319,42.754 22.135,43.034 22.76,43.58C23.297,44.069 23.599,44.764 23.59,45.49C23.597,46.22 23.291,46.919 22.75,47.41C22.136,47.972 21.321,48.264 20.49,48.22L15.49,48.22L15.49,55.48C15.531,56.319 15.189,57.133 14.56,57.69C13.913,58.217 13.094,58.488 12.26,58.45Z" style="fill-rule:nonzero;"/>
                <path d="M28.12,58.45C27.238,58.494 26.374,58.192 25.71,57.61C25.095,57.019 24.76,56.193 24.79,55.34L24.79,37.92C24.757,37.084 25.107,36.277 25.74,35.73C27.077,34.701 28.953,34.701 30.29,35.73C30.916,36.285 31.258,37.094 31.22,37.93L31.22,53L37,53C37.859,52.937 38.705,53.247 39.32,53.85C39.833,54.388 40.114,55.107 40.1,55.85C40.057,56.568 39.721,57.237 39.17,57.7C38.569,58.218 37.793,58.49 37,58.46L28.12,58.45Z" style="fill-rule:nonzero;"/>
                <path d="M42.12,40C41.361,40.004 40.634,39.688 40.12,39.13C39.609,38.592 39.335,37.871 39.36,37.13C39.487,35.67 40.724,34.535 42.189,34.535C42.929,34.535 43.64,34.824 44.17,35.34C44.664,35.885 44.919,36.606 44.88,37.34C44.853,38.808 43.638,40 42.17,40L42.12,40Z" style="fill-rule:nonzero;"/>
                <path d="M48.29,58.45C47.031,58.41 45.784,58.201 44.58,57.83C41.39,56.83 39.58,54.37 39.2,50.73C38.943,48.181 38.912,45.614 39.11,43.06C39.11,43.06 39.11,43.06 39.11,43.059C39.11,41.414 40.464,40.059 42.11,40.059C42.13,40.059 42.15,40.06 42.17,40.06L42.29,40.06C43.887,39.973 45.288,41.178 45.44,42.77C45.588,43.493 45.649,44.232 45.62,44.97L45.62,47.93C45.575,48.669 45.575,49.411 45.62,50.15C45.618,50.188 45.617,50.227 45.617,50.266C45.617,51.588 46.705,52.676 48.027,52.676C48.082,52.676 48.136,52.674 48.19,52.67L48.33,52.67C48.417,52.679 48.504,52.684 48.591,52.684C49.913,52.684 51.001,51.596 51.001,50.274C51.001,50.253 51.001,50.231 51,50.21C51.04,49.474 51.04,48.736 51,48L51,45C50.971,44.262 51.032,43.523 51.18,42.8C51.332,41.208 52.733,40.003 54.33,40.09L54.44,40.09C54.463,40.089 54.487,40.089 54.51,40.089C56.156,40.089 57.51,41.443 57.51,43.089C57.51,43.089 57.51,43.09 57.51,43.09C57.708,45.644 57.677,48.211 57.42,50.76C57.09,54.4 55.23,56.85 52.04,57.86C50.833,58.232 49.582,58.44 48.32,58.48L48.29,58.45Z" style="fill-rule:nonzero;"/>
                <path d="M54.45,40C52.945,39.942 51.739,38.688 51.739,37.182C51.739,36.492 51.992,35.826 52.45,35.31C52.973,34.771 53.699,34.477 54.45,34.5C54.458,34.5 54.467,34.5 54.475,34.5C55.984,34.5 57.225,35.741 57.225,37.25C57.225,38.749 55.999,39.986 54.5,40L54.45,40Z" style="fill-rule:nonzero;"/>
                <path d="M62.23,40C61.472,39.999 60.747,39.684 60.23,39.13C59.726,38.589 59.456,37.869 59.48,37.13C59.607,35.67 60.844,34.535 62.309,34.535C63.049,34.535 63.76,34.824 64.29,35.34C64.784,35.885 65.039,36.606 65,37.34C64.968,38.813 63.744,40.006 62.27,40L62.23,40Z" style="fill-rule:nonzero;"/>
                <path d="M68.4,58.45C67.141,58.411 65.893,58.203 64.69,57.83C61.5,56.83 59.69,54.37 59.31,50.73C59.055,48.181 59.021,45.615 59.21,43.06C59.21,43.06 59.21,43.059 59.21,43.059C59.21,41.413 60.564,40.059 62.21,40.059C62.233,40.059 62.257,40.059 62.28,40.06L62.4,40.06C63.997,39.973 65.398,41.178 65.55,42.77C65.694,43.494 65.755,44.232 65.73,44.97L65.73,47.93C65.685,48.669 65.685,49.411 65.73,50.15C65.729,50.182 65.728,50.213 65.728,50.245C65.728,51.578 66.825,52.675 68.158,52.675C68.209,52.675 68.259,52.673 68.31,52.67L68.44,52.67C68.491,52.673 68.541,52.675 68.592,52.675C69.925,52.675 71.022,51.578 71.022,50.245C71.022,50.213 71.021,50.182 71.02,50.15C71.065,49.411 71.065,48.669 71.02,47.93L71.02,45.04C71.001,44.302 71.062,43.565 71.2,42.84C71.352,41.244 72.759,40.037 74.36,40.13L74.47,40.13C74.493,40.129 74.517,40.129 74.54,40.129C76.186,40.129 77.54,41.483 77.54,43.129C77.54,43.129 77.54,43.13 77.54,43.13C77.738,45.684 77.707,48.251 77.45,50.8C77.11,54.44 75.25,56.89 72.07,57.9C70.863,58.272 69.612,58.48 68.35,58.52L68.4,58.45Z" style="fill-rule:nonzero;"/>
                <path d="M74.56,40C73.055,39.942 71.849,38.688 71.849,37.182C71.849,36.492 72.102,35.826 72.56,35.31C73.082,34.77 73.809,34.475 74.56,34.5C74.58,34.5 74.6,34.499 74.62,34.499C76.129,34.499 77.371,35.741 77.371,37.25C77.371,38.736 76.166,39.968 74.68,40L74.56,40Z" style="fill-rule:nonzero;"/>
                <path d="M82.79,58.45C81.963,58.479 81.154,58.201 80.52,57.67C79.868,57.133 79.499,56.324 79.52,55.48L79.52,37.94C79.516,37.139 79.851,36.372 80.44,35.83C81.116,35.236 82.002,34.937 82.9,35L92,35C92.798,34.956 93.579,35.251 94.15,35.81C95.191,36.853 95.191,38.567 94.15,39.61C93.576,40.157 92.802,40.446 92.01,40.41L86,40.41L86,42.8L91,42.8C91.829,42.751 92.646,43.032 93.27,43.58C93.807,44.069 94.109,44.764 94.1,45.49C94.106,46.218 93.804,46.915 93.27,47.41C92.651,47.971 91.834,48.263 91,48.22L86,48.22L86,55.48C86.041,56.319 85.699,57.133 85.07,57.69C84.429,58.214 83.617,58.485 82.79,58.45Z" style="fill-rule:nonzero;"/>
                <path d="M98.45,58.45C97.62,58.48 96.808,58.202 96.17,57.67C95.541,57.121 95.194,56.314 95.23,55.48L95.23,37.94C95.226,37.139 95.561,36.372 96.15,35.83C96.801,35.229 97.665,34.912 98.55,34.95L107.64,34.95C108.435,34.908 109.212,35.202 109.78,35.76C110.287,36.261 110.568,36.947 110.56,37.66C110.569,38.375 110.283,39.062 109.77,39.56C109.201,40.108 108.43,40.398 107.64,40.36L101.64,40.36L101.64,42.8L106.64,42.8C107.47,42.749 108.287,43.03 108.91,43.58C109.451,44.065 109.754,44.763 109.74,45.49C109.746,46.218 109.444,46.915 108.91,47.41C108.293,47.974 107.474,48.266 106.64,48.22L101.64,48.22L101.64,55.48C101.681,56.319 101.339,57.133 100.71,57.69C100.072,58.206 99.27,58.476 98.45,58.45Z" style="fill-rule:nonzero;"/>
                <path d="M114,58.45C113.17,58.478 112.359,58.2 111.72,57.67C111.094,57.118 110.749,56.314 110.78,55.48L110.78,37.94C110.776,37.139 111.111,36.372 111.7,35.83C112.352,35.231 113.215,34.915 114.1,34.95L123.19,34.95C123.988,34.91 124.767,35.204 125.34,35.76C126.381,36.803 126.381,38.517 125.34,39.56C124.766,40.107 123.992,40.396 123.2,40.36L117.2,40.36L117.2,42.8L122.2,42.8C123.029,42.754 123.845,43.034 124.47,43.58C125.007,44.069 125.309,44.764 125.3,45.49C125.307,46.22 125.001,46.919 124.46,47.41C123.846,47.972 123.031,48.264 122.2,48.22L117.2,48.22L117.2,55.48C117.241,56.319 116.899,57.133 116.27,57.69C115.631,58.21 114.824,58.48 114,58.45Z" style="fill-rule:nonzero;"/>
            </g>
        </g>
    </g>
</svg>
